<svg width="512" height="512" viewBox="0 0 512 512" fill="none" xmlns="http://www.w3.org/2000/svg">
<path d="M512 256C512 397.385 397.385 512 256 512C114.615 512 0 397.385 0 256C0 114.615 114.615 0 256 0C397.385 0 512 114.615 512 256Z" fill="#0098EA"/>
<path d="M313.824 255.244C313.824 241.446 316.809 229.174 322.779 218.428C328.749 207.549 337.041 199.124 347.655 193.154C358.401 187.051 370.541 184 384.073 184C400.657 184 414.852 188.378 426.66 197.134C437.477 205.156 445.01 215.85 449.258 229.217C449.853 231.092 448.417 232.955 446.45 232.955H414.821C413.665 232.955 412.622 232.285 412.07 231.269C409.346 226.255 405.652 222.372 400.988 219.622C395.947 216.571 390.176 215.045 383.675 215.045C373.194 215.045 364.703 218.693 358.202 225.99C351.701 233.287 348.451 243.038 348.451 255.244C348.451 267.45 351.701 277.201 358.202 284.498C364.703 291.795 373.194 295.443 383.675 295.443C390.176 295.443 395.947 293.917 400.988 290.866C405.652 288.115 409.346 284.233 412.07 279.219C412.622 278.203 413.665 277.533 414.821 277.533H446.45C448.417 277.533 449.853 279.396 449.258 281.271C445.01 294.637 437.477 305.332 426.66 313.354C414.852 321.977 400.657 326.289 384.073 326.289C370.541 326.289 358.401 323.304 347.655 317.334C337.041 311.231 328.749 302.806 322.779 292.06C316.809 281.314 313.824 269.042 313.824 255.244Z" fill="white"/>
<path d="M276.256 252.393C275.308 252.791 275.369 254.368 276.345 254.694C282.681 256.812 287.898 260.618 291.996 266.113C296.858 272.497 299.289 279.832 299.289 288.118C299.289 300.072 295.215 309.58 287.068 316.644C279.051 323.571 267.816 327.035 253.361 327.035H189.903C189.351 327.035 188.903 326.587 188.903 326.035V185C188.903 184.448 189.351 184 189.903 184H251.192C265.253 184 276.226 187.328 284.111 193.984C292.127 200.64 296.135 209.673 296.135 221.083C296.135 229.505 293.967 236.501 289.63 242.07C286.158 246.669 281.7 250.11 276.256 252.393ZM222.61 240.866C222.61 241.418 223.058 241.866 223.61 241.866H244.687C250.207 241.866 254.412 240.644 257.303 238.198C260.325 235.618 261.837 231.882 261.837 226.992C261.837 222.102 260.325 218.366 257.303 215.786C254.412 213.205 250.207 211.914 244.687 211.914H223.61C223.058 211.914 222.61 212.362 222.61 212.914V240.866ZM247.447 298.917C253.098 298.917 257.434 297.627 260.457 295.046C263.611 292.329 265.188 288.458 265.188 283.432C265.188 278.406 263.545 274.467 260.26 271.614C257.106 268.762 252.703 267.335 247.053 267.335H223.61C223.058 267.335 222.61 267.783 222.61 268.335V297.917C222.61 298.469 223.058 298.917 223.61 298.917H247.447Z" fill="white"/>
<path d="M116.527 327.085C106.312 327.085 97.1576 325.426 89.0647 322.11C80.9718 318.793 74.471 313.884 69.5622 307.383C65.3313 301.625 62.8703 294.825 62.1791 286.984C62.0306 285.3 63.3973 283.901 65.0882 283.901H95.5109C97.0493 283.901 98.3153 285.071 98.6277 286.577C99.4348 290.468 101.09 293.556 103.592 295.841C106.644 298.494 110.624 299.821 115.532 299.821C120.574 299.821 124.554 298.693 127.473 296.438C130.392 294.05 131.851 290.8 131.851 286.687C131.851 283.237 130.657 280.385 128.269 278.13C126.013 275.874 123.161 274.017 119.712 272.557C116.395 271.098 111.619 269.44 105.383 267.582C96.3616 264.796 88.9984 262.01 83.2936 259.224C77.5888 256.438 72.68 252.325 68.5672 246.886C64.4544 241.446 62.398 234.348 62.398 225.592C62.398 212.59 67.1078 202.441 76.5274 195.144C85.947 187.715 98.219 184 113.343 184C128.733 184 141.138 187.715 150.557 195.144C159.211 201.848 164.169 211.014 165.433 222.644C165.618 224.351 164.243 225.791 162.526 225.791H131.695C130.106 225.791 128.827 224.543 128.495 222.989C127.813 219.798 126.278 217.216 123.891 215.244C120.839 212.59 116.925 211.264 112.149 211.264C108.037 211.264 104.72 212.391 102.199 214.647C99.6784 216.77 98.418 219.887 98.418 224C98.418 228.511 100.541 232.027 104.786 234.547C109.032 237.068 115.665 239.788 124.687 242.707C133.708 245.758 141.005 248.677 146.577 251.463C152.282 254.249 157.191 258.295 161.304 263.602C165.416 268.909 167.473 275.741 167.473 284.1C167.473 292.06 165.416 299.29 161.304 305.791C157.324 312.292 151.486 317.466 143.791 321.314C136.096 325.161 127.008 327.085 116.527 327.085Z" fill="white"/>
</svg>
